<?xml version="1.0" encoding="UTF-8"?>
<svg version="1.1" viewBox="0 0 973 814" width="973" height="814" xmlns="http://www.w3.org/2000/svg">
<path transform="translate(329,1)" d="m0 0 4 2 10 16 14 23 48 79 8 13 2 3 79 1 8 2 12 8 43 29 17 11 93 62 14 9 44 11 66 15 142 33 5 3 6 9 15 25 13 21-1 6-49 49-7 8-40 40-7 8-10 10-4 2-238 36-8 1 5 9 19 28 23 35 7 10-2 4-8 7-14 10-95 70-18 13-13 10-38 28-18 13-16 12-19 14-18 13h-2l1-6 9-20 18-43 15-35 30-71 6-14-1-6-14-25-16-27-16-28-13-22-30-52-11-18v-3l190-1 257-1 9-9 8-7 18-18 8-7 17-16 8-8 8-7 1-2-195-38-30-6h-10l-15 10-24 15-1 1h-18l-105-10-5-2-5-6-26-42-5-8v-2h53l37 18 28 13 6 3 7-1 17-11 14-9-5-5-17-12-20-14-17-12-20-14-34-24-14-10-5 1-15 14-14 13-8 7-30 28-16 14-3 1h-127l3 3 18 11 12 8 26 16 22 14 24 15 22 14 8 5v2h-150l9 11 9 10 9 11 10 11 7 8 11 13 9 11-4 7-10 11-11 14-10 11-9 11-13 15-9 11-24 28-9 11-12 14-11 13-7 8-11 13-8 10v6l15 31 11 24 14 29 13 28 14 29 13 28 8 17v2l-5-2-54-39-17-12-36-26-17-12-36-26-17-12-54-39-17-12-12-9-3-3 2-4 14-17 10-13 13-16 10-13 13-16 11-14 12-15 10-13 13-16 33-42 13-16 10-13 12-15 22-28 2-3h-97l2-5 11-14 20-25 14-18 13-16 7-9 12-15 10-13 12-15 11-14 13-16 13-17 14-17 11-14 14-18 9-25z" fill="#3067DE"/>
</svg>
